# xmcd CD database file
#
# Track frame offsets:
#	150
#	12316
#	24539
#	36896
#	51737
#	63977
#	76605
#	87404
#	99553
#	112038
#	126509
#	137110
#	150199
#
# Disc length: 2148 seconds
#
# Revision: 1
# Processed by: cddbd v1.5.2PL0 Copyright (c) Steve Scherf et al.
# Submitted via: CDex 1.51
#
DISCID=a908620d
DTITLE=Platters, The - Forever Gold
DYEAR=1999
DGENRE=Oldies
TTITLE0=The Great Pretender
TTITLE1=Smoke Gets In Your Eyes
TTITLE2=Only You
TTITLE3=The Wonder Of You
TTITLE4=My Prayer
TTITLE5=Twilight Time
TTITLE6=It Isn't Right
TTITLE7=You'll Never Know
TTITLE8=With This Ring
TTITLE9=Harbor Lights
TTITLE10=Red Sails In The Sunset
TTITLE11=I'm Sorry
TTITLE12=The Magic Touch
EXTD=YEAR: 1999
EXTT0=
EXTT1=
EXTT2=
EXTT3=
EXTT4=
EXTT5=
EXTT6=
EXTT7=
EXTT8=
EXTT9=
EXTT10=
EXTT11=
EXTT12=
PLAYORDER=
